<svg width="5151" height="6151" viewBox="0 0 5151 6151" fill="none" xmlns="http://www.w3.org/2000/svg">
<g filter="url(#filter0_d_232_281)">
<path d="M4900.69 0.632812C4955.92 0.632812 5000.69 45.4043 5000.69 100.633V4726.01C4938.6 4704.7 4869.18 4694.04 4792.42 4694.04C4692.99 4694.04 4603.74 4712.27 4524.67 4748.72C4446.07 4784.71 4383.57 4834.66 4337.17 4898.58C4290.77 4962.5 4266.86 5036.37 4265.44 5120.17H4560.18C4561.6 5083.24 4572.73 5051.04 4593.56 5023.58C4614.39 4996.12 4642.09 4975.05 4676.66 4960.37C4711.22 4945.22 4749.34 4937.64 4791 4937.64C4832.2 4937.64 4868.18 4945.46 4898.96 4961.08C4930.21 4976.71 4954.36 4998.49 4971.4 5026.42C4988.92 5053.88 4997.68 5085.85 4997.68 5122.3C4997.68 5160.66 4987.74 5194.27 4967.85 5223.16C4947.96 5251.57 4920.03 5273.82 4884.04 5289.92C4848.53 5306.02 4807.58 5314.07 4761.17 5314.07H4625.52V5539.92H4761.17C4816.1 5539.92 4863.45 5548.44 4903.22 5565.49C4943.47 5582.53 4974.24 5606.21 4995.55 5636.51C4997.34 5638.96 4999.05 5641.43 5000.69 5643.94V5836.57C4999.71 5838.07 4998.71 5839.57 4997.68 5841.05C4977.32 5870.41 4949.15 5893.37 4913.16 5909.95C4877.18 5926.52 4835.75 5934.8 4788.87 5934.8C4743.89 5934.8 4703.41 5927.47 4667.42 5912.79C4631.44 5898.11 4602.56 5877.51 4580.78 5851C4559.47 5824.01 4547.87 5792.76 4545.98 5757.25H4236.32C4237.74 5842 4262.12 5916.81 4309.47 5981.68C4314.26 5988.13 4319.23 5994.45 4324.38 6000.63H4027.99C4071.78 5956.46 4109.46 5904.92 4141.04 5846.03C4201.17 5734.76 4231.24 5599.81 4231.24 5441.2C4231.24 5282.58 4201.17 5147.64 4141.04 5036.37C4081.38 4925.1 3999.94 4840.34 3896.72 4782.11C3793.97 4723.39 3678.44 4694.04 3550.13 4694.04C3420.87 4694.04 3304.87 4723.39 3202.12 4782.11C3099.37 4840.34 3018.17 4925.1 2958.51 5036.37C2898.85 5147.64 2869.02 5282.58 2869.02 5441.2C2869.02 5599.34 2898.85 5734.05 2958.51 5845.32C2990.26 5904.53 3028.11 5956.3 3072.06 6000.63H100.688C45.459 6000.63 0.687503 5955.86 0.6875 5900.63V100.633C0.6875 45.4043 45.459 0.632812 100.688 0.632812H4900.69ZM3550.13 4966.05C3624.47 4966.05 3689.33 4984.28 3744.73 5020.74C3800.13 5057.2 3842.98 5110.7 3873.28 5181.25C3904.06 5251.8 3919.45 5338.45 3919.45 5441.2C3919.45 5543.94 3904.06 5630.59 3873.28 5701.14C3856.78 5739.57 3836.54 5772.94 3812.59 5801.25L3704.96 5662.79H3443.6L3630.01 5908.6C3604.72 5913.76 3578.1 5916.34 3550.13 5916.34C3475.79 5916.34 3410.93 5898.11 3355.53 5861.65C3300.13 5825.19 3257.04 5771.69 3226.27 5701.14C3195.96 5630.59 3180.81 5543.94 3180.81 5441.2C3180.81 5338.45 3195.96 5251.8 3226.27 5181.25C3257.04 5110.7 3300.13 5057.2 3355.53 5020.74C3410.93 4984.28 3475.79 4966.05 3550.13 4966.05Z" fill="#006663"/>
</g>
<defs>
<filter id="filter0_d_232_281" x="0.6875" y="0.632812" width="5150" height="6150" filterUnits="userSpaceOnUse" color-interpolation-filters="sRGB">
<feFlood flood-opacity="0" result="BackgroundImageFix"/>
<feColorMatrix in="SourceAlpha" type="matrix" values="0 0 0 0 0 0 0 0 0 0 0 0 0 0 0 0 0 0 127 0" result="hardAlpha"/>
<feOffset dx="100" dy="100"/>
<feGaussianBlur stdDeviation="25"/>
<feComposite in2="hardAlpha" operator="out"/>
<feColorMatrix type="matrix" values="0 0 0 0 0 0 0 0 0 0 0 0 0 0 0 0 0 0 0.25 0"/>
<feBlend mode="normal" in2="BackgroundImageFix" result="effect1_dropShadow_232_281"/>
<feBlend mode="normal" in="SourceGraphic" in2="effect1_dropShadow_232_281" result="shape"/>
</filter>
</defs>
</svg>
